<svg version="1" xmlns="http://www.w3.org/2000/svg" width="796" height="796" viewBox="0 0 597.000000 597.000000"><path d="M559.3 6.5c-7 6.4-7.1 6.5-10 5-1.5-.8-4.5-1.5-6.6-1.5-3.5 0-4.5.7-12.1 8.6l-8.2 8.6-12.9-9.1C496 8.6 493.1 7.2 490 8.6c-2.9 1.4-21 21.6-21.6 24.1-.4 1.3-.9 2.3-1.3 2.3s-9.5-6.1-20.1-13.6C421.6 3.7 419.2 2.7 411.7 7.3c-2 1.3-12.6 11.8-23.5 23.5-10.9 11.6-21.3 22.3-23.2 23.7-5.9 4.3-7.1 3.7-13.9-7.4-5.9-9.6-10.5-14.3-16.4-16.9-3.6-1.6-5.3-1.5-11.4.3-7.3 2.2-15.5 8-25.5 18.2-10 10.1-14.1 15.4-17.6 23.1-2.4 5.4-2.5 5.9-1.9 22.7.6 19 1.3 21.6 6.9 25.8 1.8 1.3 5.2 3.3 7.6 4.3 2.3 1 4.1 2.3 4 3-.2.6-6.4 7.7-13.8 15.8-7.4 8.1-14.6 16.5-15.9 18.7-2.3 3.9-2.3 4.1-1.3 18.9 1.2 18.1.9 17.6 17.1 30.4 38.2 30.3 41.1 31.9 45.1 25.3 1.1-1.7 2-3.9 2-4.8 0-1 2-5.8 4.5-10.8 8.9-17.6 18.7-20.9 36.9-12.1 7.3 3.5 22.8 15.1 26.8 20l2.8 3.6-1.6 5.4c-1.8 6.3-2.4 7-7.9 10-11.4 6.2-11.5 6.3-12.5 9.9-.5 2-1.2 8.2-1.6 13.7l-.7 10.2 3.9 4c5.4 5.7 44.9 35.7 50.1 38.2 8.7 4.1 13.4 2.3 22.8-8.6 3.3-3.8 6.2-7.1 6.5-7.4.3-.3 6-6.8 12.5-14.5 24.1-28.1 24.6-28.4 32.5-14.2 4.1 7.4 12.5 16.6 16.7 18.4 3.8 1.5 11.3 1.8 11.3.3 0-.6-.7-1-1.5-1-3.2 0-4.3-9.4-2.2-19.5.3-1.1 0-2.6-.6-3.3-.8-1.1-.5-1.2 1.9-.5 4.8 1.3 11.2.5 17.2-2.2l5.6-2.6-2.4 2.7-2.5 2.8 3.5-2.4c10.8-7.6 26.7-25.9 31.8-36.8 2.2-4.6 2.7-7.2 2.7-13.1v-7.3l-4.7-4.3c-4.6-4.2-12.7-7.8-23.5-10.5l-4.3-1.1 8.1-9.7c4.5-5.3 10.6-12.6 13.6-16.2 5.7-6.7 7.5-9.7 8.8-14l.7-2.5-1.7 2.2c-.9 1.3-2.7 2.3-4.1 2.3-1.3 0-2.4.4-2.4 1 0 .5-.8 1-1.7 1-.9 0-2.8 1-4.2 2.2-3.3 2.9-2.4 1.7 8.7-11.4 11.4-13.5 13.2-16.4 13.2-20.9 0-5.9-4.8-10.6-28.4-27.3l-5.5-4 2-2.8c1.7-2.4 7.9-21.4 7.9-24.2 0-.6-.6-.1-1.4.9-.8 1.1-1.3 2.2-1.1 2.5.2.3-.5.6-1.4.6-1.6 0-1.3-.7 1.3-3.8 1.7-2.1 3.4-3.8 3.8-3.8.4 0 1-1.6 1.4-3.5.8-4.4-.3-5.7-10.8-13.2-4.3-3-7.8-5.7-7.8-6 0-.4 2.3-3.4 5.2-6.7l5.1-6.1-5.1 5c-3.7 3.5-5.5 4.6-6.3 3.8-.7-.7.8-3.4 5.6-9.3 6.4-7.8 6.7-8.3 5.4-10.8-2.4-5-1.9-6 7.9-15.2l9.6-9h-14l-7.1 6.5zm-25.6 75.1c-.3.3-1.2.4-1.9.1-.8-.3-.5-.6.6-.6 1.1-.1 1.7.2 1.3.5zm16 9c-.3.3-1.2.4-1.9.1-.8-.3-.5-.6.6-.6 1.1-.1 1.7.2 1.3.5zm-246.9 7.3c7.3 1.9 10 3.1 7 3.1-2 0-14.8-3.9-14.8-4.5 0-.6-.6-.7 7.8 1.4zm194.3 20.3c3.4.8 5.9.8 8.9 0 3-.7 3.9-.7 3.2 0-2.1 2.1-10.4 2-16.2-.2-5.5-2-4.8-2 4.1.2zm70.9 50.2c0 .2-.8 1-1.7 1.7-1.6 1.3-1.7 1.2-.4-.4 1.3-1.6 2.1-2.1 2.1-1.3zm-200 10.9l3.5 1.7-3.5-.8c-6.4-1.3-17.3-.8-20.9 1.1-3.9 2-4.4 2.1-3.6.7.3-.6 2.3-1.9 4.3-3 4.5-2.5 14.7-2.3 20.2.3zM327 214c0 1.9-2.9 2.2-5.2.6-2.2-1.6-2.2-1.6 1.5-1.6 2 0 3.7.5 3.7 1zm178.8 30.3c.9 1 .1 1.5-3.4 2.3-4.8 1.1-5.6.4-2.2-2 2.7-1.9 4.2-2 5.6-.3zm-45.2 49.2c-4 5-11 17.6-11.8 21.4-.2.8-.9 2.2-1.6 3-.7.9-1.3 2-1.3 2.6-.1.5-1.1 1.6-2.2 2.4-1.8 1.3-2.2 1.2-3.6-.5-1.2-1.5-1.5-3.7-1.3-9.2.3-6.6.6-7.2 2.5-7.3 2-.1 2-.2.3-.6-2.3-.6-9.2-4.8-10-6.1-.3-.5 1.9 0 4.9 1.1 5.6 2 7.3 1.9 14.3-1 1.1-.4 1.2-.1.3 1.8-.7 1.3 2.1-1.1 6.1-5.3 4-4.3 7.4-7.8 7.6-7.8.2 0-1.7 2.5-4.2 5.5zM192.1 244.3c-1.9.6-5.7 3.4-8.5 6.1-9 8.9-43 45.7-45.6 49.3l-2.4 3.4 2.8 11.2c1.6 6.2 3.2 12 3.7 12.9.5 1 4.4 2.8 9.2 4.2 11.3 3.5 17.5 6.3 18.7 8.6 3.8 7.1-28 42.4-44.5 49.5-2.2 1-6.5 1.8-9.5 1.8-9.7.2-17.2-6.8-24.5-22.6-4-9-5.9-10.4-10.2-7.7-4.3 2.6-50.8 52.5-54.1 57.9-3.7 6.3-3.3 9.4 2.9 19.9 3 5 6.1 10.4 7 12 .9 1.6 6.9 7.6 13.3 13.2 6.4 5.7 11.6 10.6 11.6 10.9 0 .3-5.2 6.3-11.4 13.3-6.2 7-11.6 13.6-11.9 14.7-.2 1.1 0 2.8.7 3.9 5.4 9.6 12.1 18.7 17.4 23.7l6.3 6-6.8 8c-3.7 4.4-8 9.3-9.5 11-2.9 3.2-3.6 5.9-1.6 7.1.7.5.8.3.3-.6-.5-.9-.4-1.1.4-.6.6.4.9 1.2.5 1.7-.3.5.8 2.2 2.5 3.8 1.7 1.6 3.1 3.3 3.1 3.7 0 .4-4 6-8.8 12.3-11.4 15-11 14.1-7 14.1 3 0 4-1 12.1-11.5 4.9-6.3 9.3-11.5 9.8-11.5 2.2 0 .4 3.4-6.7 12.6-7 9.2-7.4 9.9-5.2 10.3 1.6.2 3-.6 4.8-3 5.7-7.6 10.6-13.3 11.6-13.6.6-.2 2.8 1 4.9 2.7 2.1 1.6 4.4 3 5.1 3 .7 0 3.2-2.1 5.6-4.7C88.4 570.1 94.4 564 95.1 564c.5 0 6.6 5 13.6 11.1 14.8 12.7 18.1 14.8 21.7 13.1 3.2-1.4 25.5-26.8 26.2-29.8.4-1.3.9-2.4 1.3-2.4s8.7 6.8 18.6 15.1c25.5 21.5 29.4 23.7 36.6 20.6 4.6-2 7.4-4.7 21.4-21.2 6.6-7.7 12.2-14.2 12.5-14.5 2-1.7 17.2-20.2 19.4-23.4 2.2-3.2 2.6-4.9 2.5-10-.1-4.9-.3-5.4-.8-2.6-.4 2.4-1.6 4.1-4 5.7-1.8 1.2-3.7 2.1-4.1 1.8-.4-.3-1.1.2-1.4 1.1-.3.9-1.2 1.4-2 1.1-.8-.3-2.3.5-3.5 1.7-3 3.2-2.6 4.4.6 1.5 2-1.8 2.3-1.9 1.3-.4-2.8 3.7-4 4.8-4 3.4 0-.7-1.4 0-3 1.6-1.7 1.6-2.8 3.5-2.5 4.3.2.7.1 1.1-.4.8-.5-.4-7.2 6.8-15 15.8-7.7 9.1-15.6 17.6-17.4 19-4.1 3.1-8.6 3.3-11.8.6l-2.4-1.9 2.8-.1c5.7 0 13.3-5.5 22.2-16 7.8-9.2 17.6-20.2 24.1-27 3.9-4.1 9-9.6 11.4-12.2 2.3-2.7 4.7-4.8 5.2-4.8 1 0-4.3 8-6.6 9.9-.9.8-1.6 1.8-1.6 2.3 0 1.7 2.7-1 7.5-7.4 5.1-6.8 5.8-10.8 2.3-12.6-1.3-.6-5.2-1.9-8.8-2.8-8.5-2.2-19.9-7.6-22.9-10.8-2.3-2.5-2.4-2.9-1.2-6.4 4.7-13.6 23.3-36 37.5-45.3 16.8-11 28.1-6.7 39.5 15.2 5.3 10.2 5.9 10.9 8.1 10.9 3.1 0 7.3-4.3 28.4-28.9 24.6-28.6 25.4-29.8 26-37.6.3-3.3.3-5.1 0-4-1 4-2.9 6.7-5.2 7.6-1.4.5-2 1.4-1.6 2.1.4.7.3.8-.4.4-1.3-.8-4.3.5-4.5 2-.1.5-.5.8-.9.6-.5-.1-.8.4-.8 1 0 .7-1.3 2.2-2.8 3.2-3.2 2.3-3.4 2.7 6.7-9.3 3.4-4 6.9-8.4 7.8-9.7.8-1.3 1.9-2.2 2.3-1.9.4.3 1.1-2 1.4-4.9.5-4 .3-6.2-.8-8.3-2.2-4.2-10.3-11.6-29.5-26.9-15.2-12-17.2-13.9-15.6-14.8 7.8-4.6 14.5-9.9 17-13.7 2.9-4.2 3.2-5.6 4.3-18.5 1.3-15.1 1-17.7-3.2-24.8-3.5-6-17.9-19.4-27.1-25-8.6-5.4-19.2-9.6-24.5-9.6-5 0-10.9 3.1-15.2 7.8-4.1 4.5-6.8 9.6-11.8 21.5-3.9 9.4-5.5 10.2-12.8 6.2-2.7-1.5-14.5-10.1-26.3-19.2-26.4-20.4-29.7-22.2-36.8-20zm147.3 66.5c-4.3 4-20.2 13.2-22.8 13.2-2.3 0 2.6-3.5 10.5-7.6 4.9-2.5 10.5-5.9 12.6-7.4 5.6-4.2 5.5-3.5-.3 1.8zm-47.3 106.9c.6.6-1.3 1-5.3 1.1-10.3.1-19 4.8-32 17-3.8 3.6-9.9 10.3-13.5 14.9-3.7 4.6-6.8 8.3-7 8.3-1.6 0 10.2-14.5 19.2-23.6 14.5-14.7 23.3-19.8 32.8-19.1 2.7.3 5.3.9 5.8 1.4zm48.9 14.6c0 .2-1 1.2-2.2 2.3l-2.3 1.9 1.9-2.3c1.8-2.1 2.6-2.7 2.6-1.9zM125.5 437c1.6.7 1.2.9-1.8.9-8.7.2-12.9 2.1-19.9 9.1-4.7 4.7-6.2 5.8-5.2 3.8 2.5-4.8 8.7-11 12.9-12.9 4.2-2 10.6-2.3 14-.9zm201.7 7.7c-4.7 5.9-6.9 7.6-8.9 6.8-1.7-.7-1.7-.8.1-1.8 1-.7 3.9-2.9 6.5-4.9 2.5-2 4.8-3.7 4.9-3.7.2-.1-1 1.6-2.6 3.6zm5.8-3.4c0 .2-1 1.2-2.2 2.3l-2.3 1.9 1.9-2.3c1.8-2.1 2.6-2.7 2.6-1.9zm-5 6c0 .2-1 1.2-2.2 2.3l-2.3 1.9 1.9-2.3c1.8-2.1 2.6-2.7 2.6-1.9zm-5 5c0 1-3.9 8-4 7.2-.6-4.7-.5-5.7.9-6.5 1.6-.9 3.1-1.3 3.1-.7zM89 474.4c0 .8-.9 2.4-1.9 3.7-1.5 1.9-2.2 2.1-3.2 1.2-.9-.9-.5-1.7 1.7-3.7 3.4-3 3.4-3 3.4-1.2zm83.6 27.1c-2.9 4.4-12.7 11.4-25 17.6-6.5 3.4-11.6 5.5-11.4 4.8.2-.7 5.5-3.9 11.7-7.1 11.7-6 22.3-13.5 24.2-16.9.6-1.2 1.3-1.8 1.6-1.5.3.3-.2 1.7-1.1 3.1zm77.4 36.9c0 .2-.8 1-1.7 1.7-1.6 1.3-1.7 1.2-.4-.4 1.3-1.6 2.1-2.1 2.1-1.3zm-165 11c1 1.3 1 2-.3 3.8-2.6 4-19 22.3-20.1 22.6-.7.1-2.5-1.1-4-2.7l-2.9-3 4.8-5.3C80.6 545.1 81 544.7 85 549.4zm62.9-.7c-6.9 8.9-22.4 26.2-24.1 27.1-1.3.6-1.7 1.1-1 1.1.6.1 1.2.9 1.2 1.8-.1 1.5-.4 1.4-2-.6-2.6-3-2.5-3.4.8-4.9 1.5-.6 7.8-7 14.1-14.2 6.3-7.1 11.7-12.8 11.9-12.5.3.2-.1 1.3-.9 2.2zm78.1 17.7c0 .2-.8 1-1.7 1.7-1.6 1.3-1.7 1.2-.4-.4 1.3-1.6 2.1-2.1 2.1-1.3zm-8.7 12.6c-4.6 8.6-6.7 10.5-10.2 8.7-1.3-.7-3.4-2.6-4.8-4.3l-2.3-3.1 4.7.4c4.4.5 5.2.2 10.1-3.7 2.8-2.3 5.2-4.7 5.2-5.3 0-.5.2-.8.5-.5.3.3-1.1 3.8-3.2 7.8zm-143.2 3.3c-.6.8-.8 1.7-.4 2 .3.4-.1.7-.9.7-.9 0-2.1-.6-2.7-1.4-1-1.2-.9-1.3.7-.9 1.1.2 2.3 0 2.6-.6.4-.6 1-1.1 1.3-1.1.3 0 0 .6-.6 1.3zM573.1 258.5c-1.9 3.5-4.5 7.6-5.8 9.2-1.3 1.5-3.7 4.4-5.3 6.3-1.7 1.9-3 3.8-3 4.2 0 .5-.6.8-1.2.8-.7 0-2.4 1.6-3.7 3.5-3.2 4.7-10.8 11-16.2 13.5-2.4 1.1-3.7 2-2.9 2 5.1 0 21.2-13.6 30.3-25.5 4.6-6.1 12.2-19.3 11.6-20-.3-.2-2 2.5-3.8 6z"/></svg>